<svg id="Capa_1" enable-background="new 0 0 512 512" height="512" viewBox="0 0 512 512" width="512" xmlns="http://www.w3.org/2000/svg"><g><path d="m84.882 364.652-26.341 26.341 62.451 62.451 26.961-26.96.459-.402-62.549-62.55z"/><path d="m23.484 417.909h52.866v88.32h-52.866z" transform="matrix(.707 -.707 .707 .707 -312.112 170.633)"/><path d="m489.635 127.29.741-.694c28.861-28.945 28.827-76.007-.076-104.91-28.809-28.811-75.797-28.92-104.741-.243l-279.935 319.532 65.349 65.35z"/><path d="m476.552 339.127c-2.724 32.056-29.667 57.317-62.415 57.317-32.633 0-59.507-25.079-62.392-56.974-21.405 17.927-35.043 44.837-35.043 74.876 0 30.045 13.644 56.96 35.056 74.887 2.968-31.811 29.804-56.796 62.378-56.796 32.689 0 59.597 25.165 62.405 57.138 21.646-17.926 35.46-44.994 35.46-75.229-.001-30.229-13.81-57.293-35.449-75.219z"/><path d="m414.136 366.444c18.01 0 32.662-14.652 32.662-32.662l.014-.646.462-10.723c-10.291-3.697-21.374-5.717-32.922-5.717-11.531 0-22.598 2.015-32.877 5.701v11.384c0 18.011 14.651 32.663 32.661 32.663z"/><path d="m414.137 462.437c-18.01 0-32.662 14.651-32.662 32.661v11.196c10.278 3.686 21.346 5.701 32.877 5.701 11.37 0 22.29-1.96 32.447-5.549v-11.348c-.001-18.01-14.653-32.661-32.662-32.661z"/></g></svg>