<svg id="Capa_1" enable-background="new 0 0 511.999 511.999" height="512" viewBox="0 0 511.999 511.999" width="512" xmlns="http://www.w3.org/2000/svg"><path d="m472 296.999h-55.235c48.34-73.872 40.709-173.705-23.825-239.432-.814-1.033-1.51-1.721-2.508-2.508-75.35-73.982-195.799-73.228-270.199 1.173-64.426 64.389-74.492 165.134-24.999 240.767h-55.234c-8.284 0-15 6.716-15 15v64c0 8.284 6.716 15 15 15h16.5l10.724 14.298c19.201 25.602 29.776 57.326 29.776 89.329v2.373c0 8.284 6.716 15 15 15s15-6.716 15-15c0-8.591-.252-15.994-1.602-26h66.148c1.549 11.105 1.453 18.563 1.453 26 0 8.284 6.716 15 15 15s15-6.716 15-15c0-7.933.07-14.933-1.209-26h68.418c-1.29 11.162-1.209 18.504-1.209 26 0 8.284 6.716 15 15 15s15-6.716 15-15c0-7.948-.083-14.989 1.453-26h66.148c-1.325 9.822-1.602 17.168-1.602 26 0 8.284 6.716 15 15 15s15-6.716 15-15v-2.373c0-32.003 10.575-63.727 29.776-89.329l10.724-14.298h16.502c8.284 0 15-6.716 15-15v-64c0-8.284-6.716-15-15-15zm-265.679-34.108c7.377 10.066 12.871 21.604 15.922 34.108h-50.031zm-74.984 32.557c-16.424-19.766-27.78-42.944-33.361-67.713 28.311-9.235 60.908-5.197 87.116 13.958zm121.57 1.551c-3.715-20.336-12.33-39.363-25.122-55.573l28.214-28.214 83.787 83.787zm127.755-1.551-103.45-103.449 28.258-28.258c32.34 25.517 74.264 33.261 112.423 22.691 1.36 40.003-11.906 78.54-37.231 109.016zm-88.927-261.469c25.295 5.717 48.365 17.366 67.664 33.408l-53.74 53.74c-19.197-26.253-23.113-58.973-13.924-87.148zm122.285 122.285c-28.805 9.394-61.395 4.907-87.148-13.924l53.74-53.74c16.041 19.298 27.69 42.368 33.408 67.664zm-152.454-126.159c-10.598 38.259-2.779 80.144 22.691 112.423l-28.258 28.258-103.399-103.399c30.268-25.159 68.611-38.646 108.966-37.282zm-130.179 58.495 103.4 103.399-28.219 28.218c-32.905-25.96-75.092-33.003-112.463-22.651-1.361-40.032 11.93-78.466 37.282-108.966zm-76.387 238.399h402v34h-402zm63.705 114c-5.602-17.806-13.956-34.741-24.789-50h59.685c13.558 14.686 23.853 31.647 30.511 50zm96.981 0c-5.246-17.779-13.253-34.619-23.802-50h128.231c-10.549 15.381-18.556 32.221-23.802 50zm177.609 0h-65.407c6.658-18.353 16.953-35.314 30.511-50h59.685c-10.833 15.259-19.188 32.194-24.789 50z"/></svg>