<svg id="Capa_1" enable-background="new 0 0 511.048 511.048" height="512" viewBox="0 0 511.048 511.048" width="512" xmlns="http://www.w3.org/2000/svg"><g><path d="m134.941 0h-12.836c-15.4 0-27.929 12.528-27.929 27.929v358.718c0 4.143 3.358 7.5 7.5 7.5s7.5-3.357 7.5-7.5v-32.852h38.695v129.324c0 7.129-5.8 12.929-12.929 12.929h-12.836c-7.129 0-12.929-5.8-12.929-12.929v-64.51c0-4.143-3.358-7.5-7.5-7.5s-7.5 3.357-7.5 7.5v64.51c0 15.4 12.529 27.929 27.929 27.929h12.836c15.4 0 27.929-12.528 27.929-27.929v-392.879c0-4.143-3.358-7.5-7.5-7.5s-7.5 3.357-7.5 7.5v213.072h-38.695v-275.383c0-7.129 5.8-12.929 12.929-12.929h12.836c7.129 0 12.929 5.8 12.929 12.929v30.327c0 4.143 3.358 7.5 7.5 7.5s7.5-3.357 7.5-7.5v-30.327c0-15.401-12.528-27.929-27.929-27.929zm12.929 318.313v20.482h-38.695v-20.482z"/><path d="m281.462 205.624c.822 3.442 3.897 5.759 7.288 5.759.577 0 1.164-.067 1.75-.207 4.028-.963 6.514-5.009 5.551-9.038l-40.06-167.662c-.803-3.359-.25-6.83 1.558-9.772s4.653-5.005 8.012-5.807l12.485-2.983c6.929-1.654 13.923 2.637 15.579 9.57l22.994 96.233c.962 4.028 5.008 6.512 9.038 5.552 4.028-.963 6.514-5.009 5.551-9.038l-22.994-96.233c-3.578-14.978-18.673-24.249-33.654-20.675l-12.484 2.983c-7.256 1.733-13.403 6.188-17.308 12.545s-5.101 13.854-3.367 21.11z"/><path d="m375.976 305.591c-.963-4.028-5.01-6.512-9.038-5.552-4.028.963-6.514 5.009-5.551 9.038l6.105 25.551-16.72 3.995c-4.029.963-6.514 5.009-5.551 9.038.822 3.443 3.897 5.759 7.288 5.759.577 0 1.164-.067 1.75-.207l16.72-3.995 30.47 127.522c.802 3.358.249 6.829-1.559 9.771s-4.653 5.005-8.012 5.808l-12.485 2.983c-6.93 1.653-13.923-2.637-15.58-9.57l-22.994-96.234c-.962-4.028-5.01-6.512-9.038-5.552-4.028.963-6.514 5.009-5.551 9.038l22.994 96.234c1.733 7.256 6.189 13.402 12.545 17.307 4.455 2.736 9.468 4.143 14.567 4.143 2.177 0 4.371-.257 6.542-.775l12.485-2.983c14.978-3.579 24.252-18.677 20.673-33.655z"/><path d="m422.45 120.788c1.601-3.82-.199-8.215-4.019-9.815-3.818-1.603-8.215.198-9.816 4.019l-81.117 193.597-35.688-14.953 108.714-259.462c2.755-6.575 10.345-9.683 16.921-6.929l11.84 4.962c3.185 1.334 5.66 3.829 6.968 7.024 1.309 3.196 1.294 6.71-.041 9.896l-15.246 36.385c-1.601 3.82.199 8.215 4.019 9.815 3.821 1.604 8.215-.199 9.816-4.019l15.246-36.385c2.883-6.881 2.914-14.473.087-21.376-2.827-6.904-8.173-12.294-15.053-15.176l-11.839-4.961c-14.203-5.955-30.602.762-36.553 14.966l-179.297 427.916c-2.883 6.88-2.915 14.472-.087 21.375 2.827 6.904 8.173 12.294 15.053 15.177l11.839 4.961c3.476 1.457 7.133 2.186 10.792 2.186 3.583 0 7.168-.699 10.584-2.098 6.904-2.827 12.294-8.173 15.177-15.054zm-100.749 201.634-8.321 19.859-35.688-14.953 8.321-19.859zm-64.787 154.62c-1.334 3.186-3.83 5.66-7.025 6.969-3.196 1.309-6.71 1.294-9.895-.04l-11.839-4.961c-3.186-1.335-5.66-3.83-6.969-7.026-1.309-3.195-1.294-6.71.041-9.895l50.669-120.927 35.688 14.953z"/><path d="m59.856 89.133h-16.66c-4.142 0-7.5 3.357-7.5 7.5s3.358 7.5 7.5 7.5h16.66c4.142 0 7.5-3.357 7.5-7.5s-3.358-7.5-7.5-7.5z"/><path d="m38.837 56.564 16.66 11.9c1.321.944 2.844 1.398 4.353 1.398 2.34 0 4.646-1.093 6.109-3.142 2.408-3.37 1.627-8.055-1.744-10.462l-16.66-11.9c-3.37-2.407-8.054-1.626-10.462 1.743-2.408 3.372-1.627 8.056 1.744 10.463z"/><path d="m55.496 124.801-16.659 11.899c-3.371 2.408-4.151 7.092-1.744 10.463 1.464 2.049 3.769 3.142 6.109 3.142 1.509 0 3.032-.454 4.353-1.397l16.66-11.899c3.371-2.408 4.151-7.092 1.744-10.463-2.408-3.371-7.093-4.152-10.463-1.745z"/><path d="m451.921 183.238-15.18-6.863c-3.773-1.704-8.216-.029-9.924 3.744-1.707 3.774-.03 8.218 3.744 9.924l15.18 6.863c1.002.453 2.052.668 3.085.668 2.856 0 5.585-1.641 6.838-4.412 1.707-3.774.031-8.218-3.743-9.924z"/><path d="m475.208 146.542c-.806-4.063-4.752-6.705-8.815-5.898l-20.083 3.98c-4.063.805-6.704 4.752-5.899 8.814.708 3.571 3.842 6.043 7.349 6.043.483 0 .974-.047 1.466-.145l20.083-3.98c4.063-.804 6.704-4.752 5.899-8.814z"/><path d="m426.019 210.672c-2.079-3.582-6.67-4.799-10.251-2.721-3.583 2.079-4.801 6.669-2.721 10.252l10.278 17.706c1.392 2.397 3.907 3.735 6.493 3.735 1.278 0 2.574-.327 3.758-1.015 3.583-2.079 4.801-6.669 2.721-10.252z"/></g></svg>