<svg height="512" viewBox="0 0 60 60" width="512" xmlns="http://www.w3.org/2000/svg"><g id="Page-1" fill="none" fill-rule="evenodd"><g id="001---Volley-Ball" fill="rgb(0,0,0)" fill-rule="nonzero" transform="translate(0 -1)"><path id="Shape" d="m57 37h-10.042c7.396964-8.9501103 6.5649333-22.1078754-1.900522-30.05492628-8.4654552-7.94705089-21.6495008-7.94705089-30.114956 0-8.46545526 7.94705088-9.29748597 21.10481598-1.900522 30.05492628h-10.042c-1.65685425 0-3 1.3431458-3 3v20c0 .5522847.44771525 1 1 1h58c.5522847 0 1-.4477153 1-1v-20c0-1.6568542-1.3431458-3-3-3zm1 3v3h-18.852c2.1803243-1.0021826 4.1826064-2.3532501 5.928-4h11.924c.5522847 0 1 .4477153 1 1zm-47 5v4h-4v-4zm6 0v4h-4v-4zm6 0v4h-4v-4zm-11.781-28.81c.5367076-1.4884616 1.248006-2.9080373 2.119-4.229 1.727-.24 16.554-1.951 24.019 8.4-2.1368502 1.3175513-4.5177756 2.1899904-7 2.565-4.3323734-4.3654355-10.2071096-6.8529591-16.357-6.926-.9302312.0003354-1.8593669.0638146-2.781.19zm35.691-3.82c.8429955 1.3324663 1.5244523 2.7605043 2.03 4.254-4.288 9.131-14.789 13.555-18.756 14.941-.1160972-.8501881-.1775566-1.7069459-.184-2.565.0574747-1.2170689.2784574-2.4208698.657-3.579.049-.18.094-.359.143-.538 7.1266035-1.2100345 13.1742631-5.907388 16.11-12.513zm3.09 10.63c-.0072375 1.0907423-.1038946 2.1790549-.289 3.254-4.4906026 5.6364154-10.5178462 9.8512832-17.353 12.135-.8117385-1.5257433-1.4212027-3.1507571-1.813-4.834 3.669-1.25 13.916-5.4 19.127-14.063.2124376 1.1573909.3221977 2.3312886.328 3.508zm-14.916 19.32c-.6046909-.6844169-1.1613509-1.4098123-1.666-2.171 5.7122798-1.9401254 10.8800076-5.2135339 15.075-9.549-2.396282 5.7847895-7.3555675 10.1194026-13.409 11.72zm11.916 2.68v4h-4v-4zm6 9h-4v-3h4zm-6 0h-4v-3h4zm-40-3h4v3h-4zm6 0h4v3h-4zm6 0h4v3h-4zm6 0h4v3h-4zm-1.866-30.831c2.1413787 1.0314307 4.088104 2.4256704 5.754 4.121-1.011426 2.8522806-1.1798058 5.9355404-.485 8.881v.014.007c.6812831 3.5090845 2.2122836 6.7976968 4.459 9.578-2.2788621.3577147-4.6036468.3001202-6.862-.17-3.4802672-6.9329432-4.49128-14.8457231-2.866-22.431zm7.866 24.831h4v4h-4zm-2 0v4h-4v-4zm2 6h4v3h-4zm6 0h4v3h-4zm4-2h-4v-4h4zm-24.847-11.6c-2.795-9.7-1.644-16.066-.5-19.319 1.919678.170343 3.8071095.6019962 5.61 1.283-1.7099194 7.5439752-.9444574 15.4380869 2.183 22.513-2.7252626-.9492536-5.2130899-2.4764719-7.293-4.477zm-9.153 18.6h4v3h-4zm6 0h4v3h-4zm6 0h4v3h-4zm6 0h4v3h-4zm6 0h4v3h-4zm6 0h4v3h-4zm6 0h4v3h-4zm6 0h4v3h-4zm4-7h-4v-4h4zm-7.445-38.544c-.3195914.803545-.6869127 1.587275-1.1 2.347-4.8389954-5.49797397-11.6745706-8.83403419-18.986-9.266 7.4700961-1.7743012 15.2933667.92057132 20.086 6.919zm-25.496-4.786c8.7778512-1.17409393 17.5517967 2.1859883 23.3 8.923-1.2001915 1.7620342-2.6713423 3.3232968-4.359 4.626-6.854-9.568-18.982-9.8-23.958-9.447 1.4396726-1.62946791 3.1339828-3.01477002 5.017-4.102zm-9.476 12.622c.987195-.1657141 1.9851935-.2589632 2.986-.279-.988 3.12-1.829 8.387-.338 15.849-3.0149265-4.5937923-3.97480757-10.2378062-2.648-15.57zm-8.583 21.708c0-.5522847.44771525-1 1-1h11.924c1.7453936 1.6467499 3.7476757 2.9978174 5.928 4h-18.852zm0 5h3v14h-3zm56 14h-3v-14h3z"/></g></g></svg>